<svg xmlns="http://www.w3.org/2000/svg" viewBox="0 0 120 120" fill="none">
  <!-- Left person (dark teal) -->
  <circle cx="35" cy="25" r="12" fill="#1F6F6B"/>
  <path d="M15 85 C15 55, 35 45, 35 45 C35 45, 45 55, 45 70 L45 85 C45 90, 40 95, 30 95 C20 95, 15 90, 15 85Z" fill="#1F6F6B"/>

  <!-- Right person (light green) -->
  <circle cx="85" cy="25" r="12" fill="#7CB342"/>
  <path d="M105 85 C105 55, 85 45, 85 45 C85 45, 75 55, 75 70 L75 85 C75 90, 80 95, 90 95 C100 95, 105 90, 105 85Z" fill="#7CB342"/>

  <!-- Middle person (teal) - in front -->
  <circle cx="60" cy="20" r="14" fill="#26A69A"/>
  <path d="M35 95 C35 60, 60 48, 60 48 C60 48, 85 60, 85 95 C85 102, 75 108, 60 108 C45 108, 35 102, 35 95Z" fill="#26A69A"/>

  <!-- Connecting arm shapes -->
  <path d="M45 70 Q50 65, 55 70" stroke="#1F6F6B" stroke-width="8" fill="none" stroke-linecap="round"/>
  <path d="M75 70 Q70 65, 65 70" stroke="#7CB342" stroke-width="8" fill="none" stroke-linecap="round"/>
</svg>
